<svg xmlns="http://www.w3.org/2000/svg" width="19.681" height="19.707" viewBox="0 0 19.681 19.707">
  <g id="Group_27959" data-name="Group 27959" transform="translate(-35.082 -255.293)">
    <path id="Path_544" data-name="Path 544" d="M587.681,1719a1.566,1.566,0,0,0-.568-1.2q-1.314-1.067-2.654-2.1a2.224,2.224,0,0,0-2.923.167q-.36.34-.719.68c-.4.384-.409.4-.934.188a10.412,10.412,0,0,1-4.979-4.19,4.208,4.208,0,0,1-.578-1.455.436.436,0,0,1,.133-.447c.3-.288.572-.6.858-.9a2.239,2.239,0,0,0,.155-3.053c-.633-.8-1.277-1.6-1.9-2.412a1.933,1.933,0,0,0-1.4-.745,3.81,3.81,0,0,0-1.722.306,3.347,3.347,0,0,0-2.441,3.548,17.235,17.235,0,0,0,.362,3.043,16.224,16.224,0,0,0,15.318,12.794c.154,0,.308,0,.463,0a3.039,3.039,0,0,0,2.08-.715A4.378,4.378,0,0,0,587.681,1719Zm-.867.409a4.317,4.317,0,0,1-.588,1.758,2.245,2.245,0,0,1-2.016,1.153h-.358a15.267,15.267,0,0,1-14.518-11.666,17.261,17.261,0,0,1-.429-3.35,2.454,2.454,0,0,1,1.87-2.627,2.723,2.723,0,0,1,1.435-.219,1.052,1.052,0,0,1,.667.393c.622.8,1.259,1.6,1.888,2.394a1.341,1.341,0,0,1-.093,1.878c-.363.381-.72.766-1.087,1.144a.646.646,0,0,0-.188.532,5.094,5.094,0,0,0,.957,2.544,11.243,11.243,0,0,0,5.2,4.231,5.958,5.958,0,0,0,.846.241.571.571,0,0,0,.57-.172c.38-.364.767-.72,1.15-1.08a1.344,1.344,0,0,1,1.9-.081c.778.609,1.546,1.232,2.334,1.828A1.12,1.12,0,0,1,586.815,1719.405Z" transform="translate(-532.92 -1448.223)" fill="#568bfa"/>
  </g>
</svg>
