<svg xmlns="http://www.w3.org/2000/svg" width="12.967" height="16.157" viewBox="0 0 12.967 16.157">
  <g id="Group_27825" data-name="Group 27825" transform="translate(-195.563 -151.281)">
    <path id="Path_492" data-name="Path 492" d="M199.443,163.865a5.206,5.206,0,0,1,1.8-9.665l-.459.459a.637.637,0,0,0,0,.885.616.616,0,0,0,.885,0l1.6-1.6a.637.637,0,0,0,0-.885l-1.6-1.6a.626.626,0,0,0-.885.885l.562.562a6.483,6.483,0,0,0-2.536,12.065.693.693,0,0,0,.306.085.63.63,0,0,0,.545-.323.619.619,0,0,0-.221-.868Z" fill="#fff"/>
    <path id="Path_493" data-name="Path 493" d="M344.823,223.137a6.551,6.551,0,0,0-3.233-5.615.636.636,0,1,0-.63,1.106,5.213,5.213,0,0,1-1.821,9.665l.459-.459a.626.626,0,1,0-.885-.885l-1.6,1.6a.637.637,0,0,0,0,.885l1.6,1.6a.616.616,0,0,0,.885,0,.637.637,0,0,0,0-.885l-.578-.579a6.489,6.489,0,0,0,5.8-6.432Z" transform="translate(-136.294 -63.781)" fill="#fff"/>
  </g>
</svg>
