<svg xmlns="http://www.w3.org/2000/svg" width="14.666" height="14.666" viewBox="0 0 14.666 14.666">
  <g id="Group_27822" data-name="Group 27822" transform="translate(0 0)">
    <path id="Path_485" data-name="Path 485" d="M237.643,287.6a1.257,1.257,0,1,1,1.089-.628A1.257,1.257,0,0,1,237.643,287.6Z" transform="translate(-236.038 -282.351)" fill="#fff"/>
    <path id="Path_486" data-name="Path 486" d="M284.906,240.324a1.257,1.257,0,0,1-1.215-1.582,1.256,1.256,0,1,1,1.215,1.582Z" transform="translate(-280.918 -237.459)" fill="#fff"/>
    <path id="Path_487" data-name="Path 487" d="M354.193,311.26a1.607,1.607,0,0,1-1.606-1.607v-3.038h1.3v3.341h2.863v1.3Z" transform="translate(-346.382 -302.797)" fill="#fff"/>
    <path id="Path_488" data-name="Path 488" d="M236.786,245.511a7.333,7.333,0,0,1-7.333-7.333v-.652h1.3v.652a6.029,6.029,0,1,0,6.029-6.029h-.652v-1.3h.707a7.333,7.333,0,0,1-.055,14.666Z" transform="translate(-229.453 -230.845)" fill="#fff"/>
  </g>
</svg>
