<?xml version="1.0" encoding="utf-8"?>
<!-- Generator: Adobe Illustrator 26.0.1, SVG Export Plug-In . SVG Version: 6.00 Build 0)  -->
<svg version="1.1" id="Layer_1" xmlns="http://www.w3.org/2000/svg" xmlns:xlink="http://www.w3.org/1999/xlink" x="0px" y="0px"
	 viewBox="0 0 24.7 20.7" style="enable-background:new 0 0 24.7 20.7;" xml:space="preserve">
<style type="text/css">
	.st0{fill:#FFFFFF;}
</style>
<g id="Group_28006" transform="translate(-4782 -833.316)">
	<circle id="Ellipse_11" class="st0" cx="4800.5" cy="845.5" r="1.5"/>
	<circle id="Ellipse_12" class="st0" cx="4794.5" cy="845.5" r="1.5"/>
	<g id="Group_28005" transform="translate(4782 833.316)">
		<path id="Path_403" class="st0" d="M3.9,20.7c-2.2,0-3.9-1.8-3.9-3.9V6.6c0-2.2,1.8-3.9,3.9-3.9h0.9V2.4C4.8,1.1,5.9,0,7.2,0
			c0.6,0,1.2,0.2,1.7,0.7c0.4,0.4,0.7,1.1,0.7,1.7v0.3h5.5V2.5c0-1.3,1.1-2.3,2.4-2.3c0.6,0,1.2,0.2,1.7,0.7c0.4,0.4,0.7,1,0.7,1.6
			v0.2h0.9c2.2,0,3.9,1.7,3.9,3.9v10.1c0,2.2-1.8,3.9-3.9,3.9H3.9z M3.9,4.3c-1.3,0-2.3,1-2.3,2.3v10.2c0,1.3,1,2.3,2.3,2.3h16.9
			c1.2,0,2.2-0.9,2.3-2.1h0V6.6c0-1.3-1-2.3-2.3-2.3h-0.9v0.2c0,0,0,0.1,0,0.1c0,0,0,0.1,0,0.1c0,0.1,0,0.2,0,0.3c0,0,0,0.1,0,0.1
			s0,0.1,0,0.1c0,0.1-0.1,0.2-0.1,0.3c0,0,0,0.1,0,0.1c0,0,0,0.1-0.1,0.1c0,0,0,0,0,0.1c0,0-0.1,0.1-0.1,0.1v0v0
			c0,0-0.1,0.1-0.1,0.1l0,0c0,0-0.1,0.1-0.1,0.1c0,0,0,0.1-0.1,0.1l0,0c0,0,0,0,0,0l0,0c0,0,0,0-0.1,0c0,0,0,0-0.1,0
			c-0.1,0.1-0.1,0.1-0.2,0.1l0,0c-0.1,0-0.1,0.1-0.2,0.1l0,0c-0.1,0-0.2,0.1-0.2,0.1c-0.1,0-0.1,0-0.2,0.1h0c-0.1,0-0.2,0-0.3,0.1
			c0,0-0.1,0-0.1,0l-0.1,0l0,0c0,0-0.1,0-0.1,0c0,0,0,0,0,0c0,0-0.1,0-0.1,0h-0.1c0,0,0,0-0.1,0l-0.1,0c0,0-0.1,0-0.1,0l-0.1,0
			c0,0-0.1,0-0.1,0s-0.1,0-0.1,0h0h0c-0.1,0-0.2-0.1-0.2-0.1l0,0c0,0,0,0,0,0c-0.8-0.4-1.2-1.2-1.3-2c0,0,0,0,0-0.1V4.3H9.6l0,0.1
			c0,0,0,0,0,0.1c0,0,0,0,0,0l0,0v0c0,0.1,0,0.2,0,0.2l0,0l0,0c0,0,0,0,0,0C9.4,5.1,9.3,5.4,9.1,5.6L9,5.8c0,0-0.1,0.1-0.1,0.1
			C8.8,6,8.7,6.1,8.6,6.1l0,0l0,0C8.4,6.3,8.3,6.3,8.2,6.4l-0.1,0C8,6.4,8,6.5,7.9,6.5h0h0c0,0,0,0-0.1,0c-0.1,0-0.2,0-0.3,0h0
			c0,0-0.1,0-0.1,0c0,0,0,0-0.1,0c-0.1,0-0.2,0-0.3,0h0h0c0,0-0.1,0-0.1,0c-0.2,0-0.3-0.1-0.5-0.1l0,0c0,0,0,0-0.1,0
			C6.1,6.3,6,6.2,5.9,6.1c0,0,0,0-0.1,0c0,0,0,0-0.1-0.1l0,0C5.6,6,5.6,5.9,5.5,5.8l0,0l0,0c0,0-0.1-0.1-0.1-0.1c0,0,0,0-0.1-0.1
			c0-0.1-0.1-0.1-0.1-0.2c0-0.1-0.1-0.1-0.1-0.2C5.1,5.2,5,5.1,5,5v0C5,5,5,4.9,5,4.8v0v0c0-0.1,0-0.1,0-0.2v0v0c0,0,0,0,0-0.1
			c0,0,0,0,0,0V4.3L3.9,4.3L3.9,4.3z M17.1,5.1c0.1,0,0.1,0.1,0.2,0.1l0,0c0,0,0.1,0,0.1,0h0c0.2,0,0.4-0.1,0.5-0.2
			c0.1-0.1,0.1-0.1,0.2-0.2l0,0v0c0-0.1,0.1-0.2,0.1-0.3V2.6c0-0.2-0.1-0.4-0.2-0.5c-0.1-0.1-0.3-0.2-0.5-0.2
			c-0.4,0-0.8,0.3-0.8,0.7v0.2h0v1.6C16.7,4.6,16.9,4.9,17.1,5.1L17.1,5.1z M7,4.9C7,5,7.1,5,7.2,5c0.1,0,0.2,0,0.3-0.1l0,0l0,0h0
			c0,0,0.1-0.1,0.1-0.1c0,0,0.1-0.1,0.1-0.1l0,0v0C7.9,4.5,8,4.3,8,4.2V2.4C8,2,7.6,1.6,7.2,1.6c0,0,0,0,0,0C6.8,1.6,6.5,2,6.5,2.4
			v1.9c0,0.1,0,0.2,0.1,0.3c0,0,0,0.1,0.1,0.1c0,0.1,0.1,0.1,0.1,0.2C6.8,4.8,6.8,4.9,7,4.9C6.9,4.9,6.9,4.9,7,4.9L7,4.9z"/>
	</g>
</g>
</svg>
