<?xml version="1.0" encoding="utf-8"?>
<!-- Generator: Adobe Illustrator 26.0.1, SVG Export Plug-In . SVG Version: 6.00 Build 0)  -->
<svg version="1.1" id="Layer_1" xmlns="http://www.w3.org/2000/svg" xmlns:xlink="http://www.w3.org/1999/xlink" x="0px" y="0px"
	 viewBox="0 0 23.6 20.9" style="enable-background:new 0 0 23.6 20.9;" xml:space="preserve">
<style type="text/css">
	.st0{fill:#FFFFFF;}
	.st1{fill:#42BDD8;}
</style>
<g id="Group_28004" transform="translate(-50 -759.316)">
	<path id="Path_406" class="st0" d="M53.6,780.2c-0.5,0-0.8-0.4-0.8-0.8c0,0,0,0,0,0V768l-1.4,1.1c-0.1,0.1-0.3,0.2-0.5,0.2
		c0,0-0.1,0-0.1,0c-0.5-0.1-0.8-0.5-0.7-0.9c0-0.2,0.1-0.4,0.3-0.5l11-8.2c0.3-0.2,0.7-0.2,1,0l6.9,5.2v-3.1c0-0.5,0.4-0.8,0.8-0.8
		s0.8,0.4,0.8,0.8l0,0v4.4l2.4,1.8c0.4,0.3,0.4,0.8,0.2,1.2c-0.3,0.4-0.8,0.4-1.2,0.2l0,0l-1.4-1.1v11.4c0,0.5-0.4,0.8-0.8,0.8l0,0
		L53.6,780.2z M54.4,766.7v11.8h14.8v-11.8l-7.4-5.6L54.4,766.7z"/>
	<circle id="Ellipse_76" class="st1" cx="62" cy="771" r="3"/>
</g>
</svg>
