<svg xmlns="http://www.w3.org/2000/svg" width="20.296" height="20.296" viewBox="0 0 20.296 20.296">
  <path id="Path_522" data-name="Path 522" d="M187.65,180.4h.725a.727.727,0,0,0,.725-.725v-3.624a.727.727,0,0,0-.725-.725h-2.066l-1.45-1.45h2.066a.725.725,0,0,0,0-1.45H183.41L180,169.022a.7.7,0,0,0-1.015,0l-3.407,3.407h-4.6A2.181,2.181,0,0,0,168.8,174.6v13.772a.727.727,0,0,0,.725.725h18.847a.727.727,0,0,0,.725-.725v-4.349a.727.727,0,0,0-.725-.725h-.725a1.45,1.45,0,1,1,0-2.9Zm-8.154-9.858,4.784,4.784h-9.568Zm-8.517,3.334h3.153l-1.45,1.45h-1.7a.725.725,0,1,1,0-1.45Zm16.672,10.873v2.9h-17.4V176.778h17.4v2.175a2.9,2.9,0,0,0,0,5.8Z" transform="translate(-168.804 -168.805)" fill="#fff"/>
</svg>
