<?xml version="1.0" encoding="utf-8"?>
<!-- Generator: Adobe Illustrator 26.0.1, SVG Export Plug-In . SVG Version: 6.00 Build 0)  -->
<svg version="1.1" id="Layer_1" xmlns="http://www.w3.org/2000/svg" xmlns:xlink="http://www.w3.org/1999/xlink" x="0px" y="0px"
	 viewBox="0 0 17.5 15.9" style="enable-background:new 0 0 17.5 15.9;" xml:space="preserve">
<style type="text/css">
	.st0{fill:#FFFFFF;}
</style>
<g id="Group_27691" transform="translate(0 0)">
	<path id="Path_398" class="st0" d="M0.9,15.9c-0.6-0.1-0.9-0.6-0.8-1.2c0.1-0.4,0.4-0.8,0.8-0.8h15.7c0.6,0.1,0.9,0.6,0.8,1.2
		c-0.1,0.4-0.4,0.8-0.8,0.8H0.9z M0.9,9C0.3,8.9-0.1,8.3,0,7.8C0.1,7.4,0.4,7,0.9,6.9h12.2C13.6,7,14,7.6,13.9,8.1
		c-0.1,0.4-0.4,0.8-0.8,0.8H0.9z M0.9,2C0.3,1.9-0.1,1.4,0,0.8C0.1,0.4,0.4,0.1,0.9,0h15.7c0.6,0.1,0.9,0.6,0.8,1.2
		C17.4,1.6,17,2,16.6,2H0.9z"/>
</g>
</svg>
