<svg xmlns="http://www.w3.org/2000/svg" width="25" height="22.019" viewBox="0 0 25 22.019">
  <path id="Path_532" data-name="Path 532" d="M886.022,1146.605a1.79,1.79,0,0,0-1.977-1.962c-1.708,0-3.415-.006-5.123.006-.254,0-.323-.063-.308-.312.022-.378.016-.759,0-1.138a1.953,1.953,0,0,0-1.9-1.986q-3.214-.034-6.429,0a1.946,1.946,0,0,0-1.9,1.949c-.007.391-.017.782,0,1.172.013.243-.045.317-.3.315-1.719-.013-3.438-.009-5.156-.006a1.784,1.784,0,0,0-1.909,1.9q0,2.478,0,4.955c0,.53.059.63.563.738.262.056.323.168.322.425-.01,2.846.017,5.692-.018,8.538a1.9,1.9,0,0,0,2.013,2.017c3.2-.039,6.406-.013,9.61-.013q4.838,0,9.677,0a1.767,1.767,0,0,0,1.949-1.947q0-4.3,0-8.6c0-.231.035-.353.3-.4.525-.1.586-.207.587-.753Q886.023,1149.049,886.022,1146.605Zm-16.693-3.431a1.02,1.02,0,0,1,1.016-1.029q3.161-.015,6.321,0a1.009,1.009,0,0,1,1.008,1c.026.433,0,.869.012,1.3.008.253-.164.187-.294.188q-1.957,0-3.913,0c-1.293,0-2.587,0-3.88,0-.21,0-.291-.041-.279-.269C869.341,1143.978,869.319,1143.576,869.328,1143.175Zm14.872,18.21c0,.582-.338.879-.977.879q-4.855,0-9.709,0h-9.609c-.78,0-1.065-.287-1.066-1.069,0-2.767,0-5.535-.006-8.3,0-.28.053-.326.331-.255q4.155,1.068,8.319,2.1c.3.073.4.188.37.488a4.127,4.127,0,0,0,.013.8,1.092,1.092,0,0,0,1.043.992c.39.017.782.017,1.172,0a1.12,1.12,0,0,0,1.069-1.082c.015-.289.011-.58,0-.87-.005-.158.036-.226.206-.269q4.306-1.083,8.607-2.185c.2-.05.241,0,.241.2C884.2,1155.672,884.205,1158.528,884.2,1161.385Zm-11.415-6.636c0-.356.005-.712,0-1.068,0-.214.085-.3.3-.293.278.01.557.011.834,0,.237-.01.307.1.3.322q-.014,1.034,0,2.069c0,.232-.088.322-.316.313-.266-.011-.534-.012-.8,0-.229.011-.326-.078-.321-.308C872.792,1155.439,872.786,1155.094,872.786,1154.749Zm12.082-3.316c-3.226.809-6.45,1.628-9.714,2.455,0-.142,0-.241,0-.341a1.105,1.105,0,0,0-1.088-1.091c-.357-.012-.714-.009-1.071,0a1.081,1.081,0,0,0-1.137,1.1c-.007.246-.033.322-.308.251q-4.64-1.19-9.287-2.351c-.233-.058-.31-.146-.308-.394.014-1.495.006-2.99.007-4.485,0-.679.32-1,1.008-1h21.121c.673,0,.992.311.993.973,0,1.517,0,3.035,0,4.552C885.09,1151.278,885.073,1151.382,884.868,1151.434Z" transform="translate(-861.023 -1141.197)" fill="#42bdd8"/>
</svg>
