<svg xmlns="http://www.w3.org/2000/svg" width="21.38" height="17.945" viewBox="0 0 21.38 17.945">
  <g id="Group_326" data-name="Group 326" transform="translate(671.738 -752)">
    <path id="Path_255" data-name="Path 255" d="M-653.855,754.306h-.649a2.146,2.146,0,0,0-.641-1.5,2.233,2.233,0,0,0-1.535-.626,2.181,2.181,0,0,0-2.176,2.13h-4.4v-.137a2.2,2.2,0,0,0-.641-1.55,2.186,2.186,0,0,0-1.535-.626,2.18,2.18,0,0,0-2.176,2.176v.13h-.634a3.5,3.5,0,0,0-3.5,3.49v8.651a3.5,3.5,0,0,0,3.5,3.5h14.386a3.5,3.5,0,0,0,3.5-3.5V757.8a3.5,3.5,0,0,0-3.5-3.49Zm-3.314.038a.486.486,0,0,1,.489-.481.532.532,0,0,1,.351.137.486.486,0,0,1,.145.344v1.6a.454.454,0,0,1-.038.176c0,.008-.008.015-.008.023a.45.45,0,0,1-.1.145.462.462,0,0,1-.328.137h-.031a.464.464,0,0,1-.1-.023.256.256,0,0,1-.107-.038.6.6,0,0,1-.267-.5v-1.512Zm-8.743-.168a.492.492,0,0,1,.489-.489.5.5,0,0,1,.344.137.5.5,0,0,1,.145.351v1.55a.652.652,0,0,1-.092.321c0,.008-.008.008-.008.015a.4.4,0,0,1-.076.084.626.626,0,0,1-.092.061.169.169,0,0,0-.038.023.41.41,0,0,1-.168.031h-.008a.418.418,0,0,1-.168-.038c-.023-.008-.038-.008-.046-.015a.346.346,0,0,1-.107-.076.788.788,0,0,1-.1-.122.177.177,0,0,1-.03-.038.454.454,0,0,1-.046-.206Zm13.867,12.279a1.808,1.808,0,0,1-1.81,1.81H-668.24a1.809,1.809,0,0,1-1.81-1.81V757.8a1.809,1.809,0,0,1,1.81-1.81h.649a.533.533,0,0,0,.023.107.975.975,0,0,0,.046.214,1.16,1.16,0,0,0,.069.214,1.954,1.954,0,0,0,.084.183,1.645,1.645,0,0,0,.107.2,1.359,1.359,0,0,0,.122.168,1.418,1.418,0,0,0,.137.161,1.857,1.857,0,0,0,.176.168.926.926,0,0,0,.092.084.157.157,0,0,1,.046.031,2.106,2.106,0,0,0,.313.183c.031.015.061.038.092.053a2.291,2.291,0,0,0,.443.137.466.466,0,0,0,.107.008,2.28,2.28,0,0,0,.321.031c.015,0,.031-.008.046-.008a1.394,1.394,0,0,0,.168-.015,2.137,2.137,0,0,0,.305-.046c.023-.008.053-.008.076-.015.084-.023.16-.053.244-.084.008,0,.015-.008.023-.008a2.056,2.056,0,0,0,.359-.2l.023-.023a1.631,1.631,0,0,0,.252-.206,1.414,1.414,0,0,0,.107-.115l.114-.137a2.144,2.144,0,0,0,.382-.756c0-.008.008-.023.008-.031a1.26,1.26,0,0,0,.046-.244c.008-.023.008-.046.015-.076h4.413c0,.015.008.023.008.038a2.162,2.162,0,0,0,1.176,1.84c.015.008.038.023.053.031a1.29,1.29,0,0,0,.237.092c.061.023.122.038.183.061s.115.023.176.038a.576.576,0,0,0,.122.023h.114c.038,0,.069.008.107.008a.77.77,0,0,0,.122-.015,1.822,1.822,0,0,0,.214-.023c.076-.015.153-.031.229-.053a1.385,1.385,0,0,0,.191-.061,1.816,1.816,0,0,0,.214-.1c.061-.031.122-.061.183-.1a1.039,1.039,0,0,0,.183-.137,1.281,1.281,0,0,0,.122-.092c.015-.015.023-.031.038-.046.053-.046.092-.107.145-.161a1.434,1.434,0,0,0,.137-.168,1.668,1.668,0,0,0,.115-.2c.031-.061.069-.115.092-.168a2.154,2.154,0,0,0,.076-.237c.015-.061.038-.115.053-.176a2.3,2.3,0,0,0,.031-.229,1.489,1.489,0,0,0,.023-.183h.649a1.809,1.809,0,0,1,1.81,1.81v8.7Z" transform="translate(0)" fill="#236afd"/>
    <path id="Path_256" data-name="Path 256" d="M-587.23,899.406h-12.324a.85.85,0,0,0-.848.848.845.845,0,0,0,.848.847h12.332a.85.85,0,0,0,.848-.847.862.862,0,0,0-.855-.848Z" transform="translate(-67.655 -139.801)" fill="#236afd"/>
  </g>
</svg>
