<svg xmlns="http://www.w3.org/2000/svg" width="10.885" height="10.887" viewBox="0 0 10.885 10.887">
  <g id="Icon_ionic-ios-timer" data-name="Icon ionic-ios-timer" transform="translate(0)">
    <path id="Path_395" data-name="Path 395" d="M9.381,14.825A5.444,5.444,0,0,1,5.6,5.462a.437.437,0,0,1,.607.629A4.569,4.569,0,1,0,9.817,4.833v1.7a.438.438,0,1,1-.876,0V4.376a.438.438,0,0,1,.438-.438,5.444,5.444,0,0,1,0,10.887Z" transform="translate(-3.938 -3.938)" fill="#42bdd8"/>
    <path id="Path_396" data-name="Path 396" d="M11.684,11.3l2.708,1.946a.819.819,0,0,1-.953,1.334.791.791,0,0,1-.191-.191L11.3,11.684a.273.273,0,0,1,.381-.381Z" transform="translate(-8.421 -8.42)" fill="#42bdd8"/>
  </g>
</svg>
