<svg xmlns="http://www.w3.org/2000/svg" width="9.9" height="9.9" viewBox="0 0 9.9 9.9">
  <g id="Group_27997" data-name="Group 27997" transform="translate(12.021 -393.858) rotate(45)">
    <path id="Path_620" data-name="Path 620" d="M1,0A1,1,0,0,1,2,1V11a1,1,0,0,1-2,0V1A1,1,0,0,1,1,0Z" transform="translate(276 281)" fill="#fff"/>
    <path id="Path_621" data-name="Path 621" d="M1,0A1,1,0,0,1,2,1V11a1,1,0,0,1-2,0V1A1,1,0,0,1,1,0Z" transform="translate(283 286) rotate(90)" fill="#fff"/>
  </g>
</svg>
