<svg xmlns="http://www.w3.org/2000/svg" width="30.31" height="37.045" viewBox="0 0 30.31 37.045">
  <path id="Path_249" data-name="Path 249" d="M-395.11,254.367a1.684,1.684,0,0,1-1.684,1.683,1.683,1.683,0,0,1-1.683-1.683,11.788,11.788,0,0,0-11.788-11.787,11.787,11.787,0,0,0-11.787,11.787,1.683,1.683,0,0,1-1.684,1.683,1.683,1.683,0,0,1-1.683-1.683,15.154,15.154,0,0,1,15.154-15.155,15.155,15.155,0,0,1,15.155,15.155Zm-15.155-16.839a9.261,9.261,0,0,1-9.261-9.261,9.262,9.262,0,0,1,9.261-9.261A9.261,9.261,0,0,1-401,228.266,9.261,9.261,0,0,1-410.265,237.528Zm0-3.367a5.894,5.894,0,0,0,5.894-5.894,5.894,5.894,0,0,0-5.894-5.893,5.893,5.893,0,0,0-5.893,5.893A5.893,5.893,0,0,0-410.265,234.16Z" transform="translate(425.42 -219.005)" fill="#0f2367"/>
</svg>
