<svg xmlns="http://www.w3.org/2000/svg" width="15.129" height="15.169" viewBox="0 0 15.129 15.169">
  <path id="Path_531" data-name="Path 531" d="M527.294,390.9a2.923,2.923,0,0,0,.846-2.113c0-.027-.005-.059-.008-.094a3.173,3.173,0,0,0-.04-.344,2.85,2.85,0,0,0-2.8-2.349,2.784,2.784,0,0,0-1.853.708c-.488.427-.95.9-1.4,1.364-.192.2-.391.4-.589.6l-4.737,4.741-2.626,2.629a.575.575,0,0,0-.161.3c-.284,1.331-.589,2.761-.9,4.194a.526.526,0,0,0,.1.446.5.5,0,0,0,.4.187.579.579,0,0,0,.123-.014c1.551-.337,2.856-.621,4.186-.906a.573.573,0,0,0,.3-.161l.7-.7c1.609-1.615,3.273-3.284,4.911-4.925q.675-.677,1.352-1.352C525.813,392.382,526.561,391.635,527.294,390.9Zm-4.47-2.212c.156-.152.312-.31.463-.463.249-.252.506-.513.774-.756a1.735,1.735,0,0,1,1.192-.479,2.057,2.057,0,0,1,.656.114,1.751,1.751,0,0,1,1.213,1.417c.015.076.023.152.029.218,0,.026.005.05.008.072v.016a1.865,1.865,0,0,1-.524,1.327l-.016.016c-.378.38-.768.774-1.147,1.165a.205.205,0,0,1-.341.006c-.725-.733-1.479-1.489-2.3-2.31a.207.207,0,0,1,0-.342Zm1.617,3.68c-2.084,2.083-4.2,4.2-6.248,6.255l-.581.582a.457.457,0,0,1-.236.133c-.812.173-1.609.346-2.451.528l-.631.137-.149.032.032-.149.136-.636c.182-.848.354-1.649.527-2.467a.452.452,0,0,1,.142-.232l.988-.99c1.909-1.913,3.883-3.891,5.822-5.838a.247.247,0,0,1,.171-.092.241.241,0,0,1,.167.088c.691.7,1.423,1.433,2.3,2.31a.249.249,0,0,1,.093.172A.245.245,0,0,1,524.441,392.364Z" transform="translate(-513.011 -385.996)" fill="#42bdd8"/>
</svg>
