<svg xmlns="http://www.w3.org/2000/svg" width="15.4" height="15.4" viewBox="0 0 15.4 15.4">
  <path id="Path_530" data-name="Path 530" d="M89.926,80.607l-9.174,9.22a2.519,2.519,0,0,1-1.758.724h-3.2a.649.649,0,0,1-.463-.191.639.639,0,0,1-.177-.464l.082-3.237a2.462,2.462,0,0,1,.722-1.694l6.5-6.515a.3.3,0,0,1,.409,0l2.28,2.271a.861.861,0,0,0,.6.246.9.9,0,0,0,.9-.9.926.926,0,0,0-.245-.628c-.041-.055-2.212-2.217-2.212-2.217a.363.363,0,0,1,0-.505l.913-.929a2.153,2.153,0,0,1,3.053,0l1.772,1.776a2.171,2.171,0,0,1,0,3.046" transform="translate(-75.15 -75.15)" fill="#fff"/>
</svg>
