<svg xmlns="http://www.w3.org/2000/svg" xmlns:xlink="http://www.w3.org/1999/xlink" width="25.719" height="19.333" viewBox="0 0 25.719 19.333">
  <defs>
    <clipPath id="clip-path">
      <rect id="Rectangle_16889" data-name="Rectangle 16889" width="25.719" height="19.333" transform="translate(0 0)" fill="#236afd"/>
    </clipPath>
  </defs>
  <g id="Group_337" data-name="Group 337" transform="translate(-139.21 -198)">
    <g id="Group_336" data-name="Group 336" transform="translate(139.21 198)" clip-path="url(#clip-path)">
      <g id="Group_335" data-name="Group 335" transform="translate(0 0.021)">
        <path id="Path_259" data-name="Path 259" d="M139.206,214.866V201.2a1.373,1.373,0,0,0,.05-.164,3.194,3.194,0,0,1,3.12-2.646q9.689-.009,19.377,0a3.189,3.189,0,0,1,3.077,2.452c.029.12.064.239.094.359v13.663a.613.613,0,0,0-.044.113,3.111,3.111,0,0,1-2.484,2.608,10.342,10.342,0,0,1-1.9.088q-9.023.009-18.046,0a3.2,3.2,0,0,1-3.123-2.331c-.046-.155-.083-.316-.124-.478Zm8.751-7.066c-.4.4-.782.772-1.155,1.151l-4.093,4.081a.811.811,0,0,0-.257.862.8.8,0,0,0,1.387.283q2.551-2.541,5.1-5.1a1.851,1.851,0,0,0,.17-.235c.141.129.234.209.325.292L151.475,211a.8.8,0,0,0,1.185-.005q1.062-.96,2.122-1.924c.064-.06.136-.12.216-.193l1.89,1.9,3.408,3.408a.8.8,0,1,0,1.149-1.119q-1.708-1.72-3.426-3.428c-.609-.608-1.222-1.215-1.841-1.835.081-.076.147-.14.214-.2l2.489-2.261,2.546-2.315a.782.782,0,0,0,.262-.815h0a.762.762,0,0,0-.573-.579.841.841,0,0,0-.822.251q-4.007,3.65-8.026,7.3c-.064.06-.134.117-.2.179l-3.829-3.479q-2.21-2-4.423-4.013a.809.809,0,0,0-.8-.227h0a.764.764,0,0,0-.568.578.788.788,0,0,0,.27.813q1.581,1.434,3.16,2.871Z" transform="translate(-139.206 -198.388)" fill="#236afd"/>
      </g>
    </g>
  </g>
</svg>
