<svg xmlns="http://www.w3.org/2000/svg" width="198.057" height="25.469" viewBox="0 0 198.057 25.469">
  <g id="Group_28004" data-name="Group 28004" transform="translate(-88 -387.5)">
    <path id="Icon_awesome-star" data-name="Icon awesome-star" d="M12.842.849,9.724,7.17,2.749,8.187A1.528,1.528,0,0,0,1.9,10.794l5.046,4.917L5.757,22.657a1.527,1.527,0,0,0,2.215,1.609l6.24-3.28,6.24,3.28a1.528,1.528,0,0,0,2.215-1.609l-1.193-6.946,5.046-4.917a1.528,1.528,0,0,0-.845-2.607L18.7,7.17,15.582.849A1.529,1.529,0,0,0,12.842.849Z" transform="translate(86.559 388.001)" fill="#f90"/>
    <path id="Icon_awesome-star-2" data-name="Icon awesome-star" d="M12.842.849,9.724,7.17,2.749,8.187A1.528,1.528,0,0,0,1.9,10.794l5.046,4.917L5.757,22.657a1.527,1.527,0,0,0,2.215,1.609l6.24-3.28,6.24,3.28a1.528,1.528,0,0,0,2.215-1.609l-1.193-6.946,5.046-4.917a1.528,1.528,0,0,0-.845-2.607L18.7,7.17,15.582.849A1.529,1.529,0,0,0,12.842.849Z" transform="translate(129.559 388.001)" fill="#f90"/>
    <path id="Icon_awesome-star-3" data-name="Icon awesome-star" d="M12.842.849,9.724,7.17,2.749,8.187A1.528,1.528,0,0,0,1.9,10.794l5.046,4.917L5.757,22.657a1.527,1.527,0,0,0,2.215,1.609l6.24-3.28,6.24,3.28a1.528,1.528,0,0,0,2.215-1.609l-1.193-6.946,5.046-4.917a1.528,1.528,0,0,0-.845-2.607L18.7,7.17,15.582.849A1.529,1.529,0,0,0,12.842.849Z" transform="translate(172.559 388.001)" fill="none" stroke="#f90" stroke-width="1"/>
    <path id="Icon_awesome-star-4" data-name="Icon awesome-star" d="M12.842.849,9.724,7.17,2.749,8.187A1.528,1.528,0,0,0,1.9,10.794l5.046,4.917L5.757,22.657a1.527,1.527,0,0,0,2.215,1.609l6.24-3.28,6.24,3.28a1.528,1.528,0,0,0,2.215-1.609l-1.193-6.946,5.046-4.917a1.528,1.528,0,0,0-.845-2.607L18.7,7.17,15.582.849A1.529,1.529,0,0,0,12.842.849Z" transform="translate(215.559 388.001)" fill="none" stroke="#f90" stroke-width="1"/>
    <path id="Icon_awesome-star-5" data-name="Icon awesome-star" d="M12.842.849,9.724,7.17,2.749,8.187A1.528,1.528,0,0,0,1.9,10.794l5.046,4.917L5.757,22.657a1.527,1.527,0,0,0,2.215,1.609l6.24-3.28,6.24,3.28a1.528,1.528,0,0,0,2.215-1.609l-1.193-6.946,5.046-4.917a1.528,1.528,0,0,0-.845-2.607L18.7,7.17,15.582.849A1.529,1.529,0,0,0,12.842.849Z" transform="translate(258.559 388.001)" fill="none" stroke="#f90" stroke-width="1"/>
  </g>
</svg>
