<svg xmlns="http://www.w3.org/2000/svg" width="10.087" height="13.258" viewBox="0 0 10.087 13.258">
  <path id="Path_409" data-name="Path 409" d="M290.063,269.864l3.663,5.116a.63.63,0,0,0,1.023,0l3.551-4.961c.074-.1.115-.16.123-.175h0a5.045,5.045,0,1,0-8.36.017Zm-.029-2.84a4.2,4.2,0,1,1,7.515,2.579,4.738,4.738,0,0,1-2.958,1.611c-.118,0-.238.017-.358.017h0a4.173,4.173,0,0,1-1.72-.37,5.537,5.537,0,0,1-1.72-1.413,4.172,4.172,0,0,1-.759-2.425Z" transform="translate(-289.192 -261.985)" fill="#42bdd8"/>
</svg>
