<svg xmlns="http://www.w3.org/2000/svg" width="16.684" height="20.868" viewBox="0 0 16.684 20.868">
  <g id="Icon_ionic-ios-notifications" data-name="Icon ionic-ios-notifications" transform="translate(-6.761 -3.93)">
    <path id="Path_468" data-name="Path 468" d="M17.118,31.1a2.459,2.459,0,0,0,2.509-2.764H14.6A2.46,2.46,0,0,0,17.118,31.1Z" transform="translate(-2.025 -6.302)" fill="#42bdd8"/>
    <path id="Path_469" data-name="Path 469" d="M23.234,19.384c-.8-1.059-2.384-1.679-2.384-6.42C20.85,8.1,18.7,6.142,16.7,5.672c-.188-.047-.323-.11-.323-.308V5.213a1.273,1.273,0,1,0-2.545,0v.151c0,.193-.136.261-.323.308C11.5,6.147,9.355,8.1,9.355,12.964c0,4.741-1.58,5.356-2.384,6.42A1.035,1.035,0,0,0,7.8,21.043H22.41A1.035,1.035,0,0,0,23.234,19.384Z" transform="translate(0)" fill="#42bdd8"/>
  </g>
</svg>
