<svg xmlns="http://www.w3.org/2000/svg" width="10.971" height="12.967" viewBox="0 0 10.971 12.967">
  <g id="Group_27991" data-name="Group 27991" transform="translate(-109.03 -2094.056)">
    <path id="Path_537" data-name="Path 537" d="M270.2,2094.077c-.021,0-.042.009-.049-.021h.051c.009.005.011.01.008.015A.013.013,0,0,1,270.2,2094.077Z" transform="translate(-156.014)" fill="#568bfa"/>
    <path id="Path_538" data-name="Path 538" d="M271.7,2094.077a.211.211,0,0,0,0-.021h.051c.009.005.011.01.008.015a.013.013,0,0,1-.01.006Z" transform="translate(-157.509)" fill="#568bfa"/>
    <path id="Path_539" data-name="Path 539" d="M273.292,2094.077c0-.007,0-.014,0-.021h.051A.042.042,0,0,1,273.292,2094.077Z" transform="translate(-159.052)" fill="#568bfa"/>
    <path id="Path_540" data-name="Path 540" d="M290.959,2094.077c-.022,0-.042,0-.052-.021h.051c.008,0,.011.009.008.014S290.962,2094.077,290.959,2094.077Z" transform="translate(-176.108)" fill="#568bfa"/>
    <path id="Path_541" data-name="Path 541" d="M292.5,2094.077a.132.132,0,0,1,0-.021h.051C292.548,2094.087,292.525,2094.08,292.5,2094.077Z" transform="translate(-177.653)" fill="#568bfa"/>
    <path id="Path_542" data-name="Path 542" d="M119.905,2098.5a5.494,5.494,0,0,0-4.5-4.371,2.278,2.278,0,0,1-.452-.071H114.9c-.014.016-.033.012-.051.013s-.037,0-.051-.013h-.506c-.015.017-.035.012-.054.013h-.044c-.019,0-.039,0-.054-.013h-.1c-.01.034-.04.023-.063.026-.187.028-.377.046-.562.086a5.449,5.449,0,0,0-3.862,7.595,9.862,9.862,0,0,0,1.836,2.661,32.9,32.9,0,0,0,2.489,2.338.922.922,0,0,0,1.285,0,32.89,32.89,0,0,0,2.489-2.338,10.271,10.271,0,0,0,1.833-2.648A5.311,5.311,0,0,0,119.905,2098.5Zm-.986,2.662a8.443,8.443,0,0,1-1.54,2.43,26.35,26.35,0,0,1-2.493,2.405l-.179.16c-.156.139-.216.14-.368,0-.353-.314-.707-.626-1.057-.944a15.715,15.715,0,0,1-2.23-2.392,6.415,6.415,0,0,1-1.176-2.5,4.308,4.308,0,0,1,.1-2.039,4.653,4.653,0,0,1,2.044-2.739,4.872,4.872,0,0,1,2.7-.727,4.579,4.579,0,0,1,3.942,2.471A4.382,4.382,0,0,1,118.919,2101.159Z" fill="#a1b2c2"/>
    <path id="Path_543" data-name="Path 543" d="M208.44,2184.233a2.416,2.416,0,1,0,2.414,2.411A2.418,2.418,0,0,0,208.44,2184.233Zm0,4.073a1.657,1.657,0,1,1,1.655-1.658A1.662,1.662,0,0,1,208.44,2188.306Z" transform="translate(-93.92 -87.317)" fill="#a1b2c2"/>
  </g>
</svg>
