<svg xmlns="http://www.w3.org/2000/svg" width="10.971" height="8.675" viewBox="0 0 10.971 8.675">
  <path id="Path_619" data-name="Path 619" d="M153.633,192.27h-8.988a.993.993,0,0,0-.991.991v3.926a.279.279,0,0,0,.559,0v-3.926a.427.427,0,0,1,.033-.162l3.45,3.441a2.046,2.046,0,0,0,2.886,0l3.452-3.441a.431.431,0,0,1,.032.161v6.778a.327.327,0,0,1-.3.347h-9.251a.327.327,0,0,1-.3-.347v-1.113a.279.279,0,1,0-.559,0v1.113a.885.885,0,0,0,.859.906h9.251a.885.885,0,0,0,.859-.906v-6.778a.993.993,0,0,0-.991-.991Zm-3.446,3.876h0a1.487,1.487,0,0,1-2.1,0l-3.323-3.317h8.746Z" transform="translate(-143.654 -192.27)" fill="#a1b2c2"/>
</svg>
