<svg xmlns="http://www.w3.org/2000/svg" width="21.09" height="21.307" viewBox="0 0 21.09 21.307">
  <g id="Group_325" data-name="Group 325" transform="translate(888.794 -138.503)">
    <path id="Path_252" data-name="Path 252" d="M-878.138,138.5a10.733,10.733,0,0,0-2.561.31.969.969,0,0,0-.7.671.968.968,0,0,0,.232.941.969.969,0,0,0,.931.269,8.729,8.729,0,0,1,5.061.222,8.73,8.73,0,0,1,4.085,3,8.728,8.728,0,0,1,1.733,4.761,8.726,8.726,0,0,1-1.2,4.921,8.727,8.727,0,0,1-3.734,3.424,8.729,8.729,0,0,1-5.006.773c-.1-.014-.2-.029-.3-.046h0a8.578,8.578,0,0,1-1.046-.238,8.732,8.732,0,0,1-3.584-2.118c-.027-.027-.057-.051-.083-.078-.17-.171-.331-.35-.484-.535-.026-.03-.054-.059-.08-.09-.142-.173-.273-.355-.4-.539-.036-.05-.075-.1-.109-.152-.109-.164-.209-.335-.308-.507-.046-.08-.1-.16-.139-.242h0a8.674,8.674,0,0,1-.948-3c-.011-.086-.024-.171-.033-.257-.02-.272-.037-.547-.037-.827a8.825,8.825,0,0,1,.224-1.976.968.968,0,0,0-.122-.731.968.968,0,0,0-.6-.431.97.97,0,0,0-.731.122.969.969,0,0,0-.431.6,10.708,10.708,0,0,0-.274,2.414c0,.338.019.678.051,1.01.01.106.027.209.04.314.02.165.035.33.063.492a.532.532,0,0,0,.022.06,10.561,10.561,0,0,0,.969,2.893c.01.023.009.048.02.07.026.051.059.1.086.15.058.109.122.214.184.322.116.2.234.4.362.6.048.07.1.137.147.205.154.219.311.435.484.641.033.041.069.077.1.117.189.224.388.443.591.651.028.027.058.051.086.078.194.194.388.378.593.553.012.01.027.013.039.022a10.639,10.639,0,0,0,3.668,2h.008c.3.1.611.169.92.234.08.017.162.031.242.045.243.046.484.083.732.112.1.011.183.022.276.031.324.029.65.049.977.049a10.657,10.657,0,0,0,7.387-3.2,10.658,10.658,0,0,0,3.038-7.456,10.656,10.656,0,0,0-3.044-7.453,10.656,10.656,0,0,0-7.389-3.2Z" fill="#236afd"/>
    <path id="Path_253" data-name="Path 253" d="M-848.7,178.019a10.7,10.7,0,0,0-2.235,2.267.969.969,0,0,0-.1.963.968.968,0,0,0,.784.57.969.969,0,0,0,.885-.394,8.8,8.8,0,0,1,1.83-1.857.968.968,0,0,0,.378-.638.968.968,0,0,0-.184-.718.969.969,0,0,0-.775-.388.962.962,0,0,0-.581.195Z" transform="translate(-35.822 -37.391)" fill="#236afd"/>
    <path id="Path_254" data-name="Path 254" d="M-770.4,286.759a.962.962,0,0,0,.284.685l2.583,2.584a.969.969,0,0,0,.685.284.968.968,0,0,0,.685-.284l5.166-5.166a.969.969,0,0,0,.251-.936.968.968,0,0,0-.685-.685.969.969,0,0,0-.936.25l-4.481,4.481-1.9-1.9h0a.969.969,0,0,0-.685-.284.969.969,0,0,0-.685.284.968.968,0,0,0-.284.685Z" transform="translate(-112.58 -137.6)" fill="#236afd"/>
  </g>
</svg>
