<svg xmlns="http://www.w3.org/2000/svg" width="14.211" height="14.212" viewBox="0 0 14.211 14.212">
  <g id="Group_323" data-name="Group 323" transform="translate(-183.607 -183.608)">
    <path id="Path_250" data-name="Path 250" d="M189.619,242.808a31.469,31.469,0,0,0-3.217.091,2.595,2.595,0,0,0-2.705,2.707,31.6,31.6,0,0,0-.091,3.215,30.976,30.976,0,0,0,.093,3.215,2.6,2.6,0,0,0,2.712,2.706,31.324,31.324,0,0,0,3.208.091,31.012,31.012,0,0,0,3.208-.093,2.6,2.6,0,0,0,2.711-2.708,30.859,30.859,0,0,0,.094-3.211h0a.547.547,0,1,0-1.093,0c0,1.36,0,2.374-.086,3.087a1.568,1.568,0,0,1-1.748,1.747c-.714.081-1.727.085-3.085.085s-2.371,0-3.085-.084a1.566,1.566,0,0,1-1.748-1.745c-.082-.714-.086-1.729-.086-3.091s0-2.377.083-3.092a1.56,1.56,0,0,1,1.742-1.743c.715-.081,1.73-.084,3.094-.084h0a.547.547,0,1,0,0-1.093Z" transform="translate(0 -57.013)" fill="#fff"/>
    <path id="Path_251" data-name="Path 251" d="M323.9,183.608a.547.547,0,0,0-.378.16l-6.559,6.559a.547.547,0,0,0-.16.386v1.64a.547.547,0,0,0,.547.547h1.64a.547.547,0,0,0,.387-.16l6.559-6.559h0a.546.546,0,0,0,0-.773l-1.64-1.64a.546.546,0,0,0-.395-.16Zm.008,1.32.867.867-.867.867-.867-.867Zm-1.64,1.64.867.867-4.373,4.373h-.867v-.867Z" transform="translate(-128.274 0)" fill="#fff"/>
  </g>
</svg>
