<svg xmlns="http://www.w3.org/2000/svg" width="14.186" height="10.642" viewBox="0 0 14.186 10.642">
  <g id="Group_27704" data-name="Group 27704" transform="translate(-169.99 -218.338)">
    <path id="Path_35" data-name="Path 35" d="M184.176,219.364a1.121,1.121,0,0,1-1.2,1.026H171.186a1.121,1.121,0,0,1-1.2-1.026h0a1.121,1.121,0,0,1,1.2-1.026h11.795a1.121,1.121,0,0,1,1.2,1.026Z" fill="#c5c5c5"/>
    <path id="Path_36" data-name="Path 36" d="M250.324,342.274a1.112,1.112,0,0,1-1.2,1h-6.9a1.112,1.112,0,0,1-1.2-1h0a1.112,1.112,0,0,1,1.2-1h6.9a1.112,1.112,0,0,1,1.2,1Z" transform="translate(-68.594 -118.507)" fill="#c5c5c5"/>
    <path id="Path_37" data-name="Path 37" d="M316.465,465.189a1.1,1.1,0,0,1-1.2.98h-2.011a1.1,1.1,0,0,1-1.2-.98h0a1.1,1.1,0,0,1,1.2-.98h2.011a1.1,1.1,0,0,1,1.2.98Z" transform="translate(-137.18 -237.189)" fill="#c5c5c5"/>
  </g>
</svg>
