<svg xmlns="http://www.w3.org/2000/svg" width="144.316" height="143.041" viewBox="0 0 144.316 143.041">
  <g id="Group_1" data-name="Group 1" transform="translate(-382.743 -834.761)">
    <path id="Path_1" data-name="Path 1" d="M406.6,955.242V978.6h-3.071V961.181L395.771,978.6h-2.16l-7.8-17.449V978.6h-3.071V955.242h3.307l8.641,19.305,8.639-19.305Z" transform="translate(0 -35.739)" fill="#030405"/>
    <path id="Path_2" data-name="Path 2" d="M423.573,966.225a8.311,8.311,0,0,1,3.156-3.325,8.656,8.656,0,0,1,4.471-1.182,8.2,8.2,0,0,1,4.219,1.047,6.975,6.975,0,0,1,2.666,2.633v-3.375h3.1v18.5h-3.1v-3.443a7.23,7.23,0,0,1-2.717,2.683,8.126,8.126,0,0,1-4.2,1.063,8.383,8.383,0,0,1-4.455-1.215,8.512,8.512,0,0,1-3.138-3.408,10.619,10.619,0,0,1-1.147-5,10.392,10.392,0,0,1,1.147-4.978m13.669,1.367a5.965,5.965,0,0,0-2.278-2.379,6.458,6.458,0,0,0-6.294-.017,5.871,5.871,0,0,0-2.261,2.363,7.518,7.518,0,0,0-.845,3.645,7.7,7.7,0,0,0,.845,3.7,5.966,5.966,0,0,0,2.261,2.4,6.107,6.107,0,0,0,3.138.827,6.2,6.2,0,0,0,3.156-.827,5.939,5.939,0,0,0,2.278-2.4,7.625,7.625,0,0,0,.843-3.662,7.526,7.526,0,0,0-.843-3.646" transform="translate(-11.772 -37.661)" fill="#030405"/>
    <path id="Path_3" data-name="Path 3" d="M470.974,963.714a7.861,7.861,0,0,1,2.093,5.889v10.9h-3.038V970.042a5.942,5.942,0,0,0-1.384-4.236,4.941,4.941,0,0,0-3.779-1.468A5.063,5.063,0,0,0,461,965.857a6.2,6.2,0,0,0-1.434,4.421V980.5h-3.071v-18.5h3.071v2.633a6.115,6.115,0,0,1,2.481-2.194,7.7,7.7,0,0,1,3.46-.776,7.494,7.494,0,0,1,5.467,2.042" transform="translate(-21.878 -37.647)" fill="#030405"/>
    <path id="Path_4" data-name="Path 4" d="M486.72,963.621a8.328,8.328,0,0,1,3.157-3.325,8.72,8.72,0,0,1,4.505-1.182,8.376,8.376,0,0,1,4.017,1,7.186,7.186,0,0,1,2.835,2.616v-9.788h3.105v24.976h-3.105v-3.476a7.178,7.178,0,0,1-2.7,2.716,8.033,8.033,0,0,1-4.185,1.063,8.418,8.418,0,0,1-7.628-4.624,10.62,10.62,0,0,1-1.146-5,10.392,10.392,0,0,1,1.146-4.978m13.67,1.367a5.961,5.961,0,0,0-2.278-2.379,6.459,6.459,0,0,0-6.294-.017,5.866,5.866,0,0,0-2.261,2.363,7.518,7.518,0,0,0-.844,3.645,7.7,7.7,0,0,0,.844,3.7,5.961,5.961,0,0,0,2.261,2.4,6.106,6.106,0,0,0,3.138.827,6.2,6.2,0,0,0,3.156-.827,5.934,5.934,0,0,0,2.278-2.4,7.625,7.625,0,0,0,.843-3.662,7.527,7.527,0,0,0-.843-3.646" transform="translate(-30.504 -35.056)" fill="#030405"/>
    <path id="Path_5" data-name="Path 5" d="M522.516,979.641a8.406,8.406,0,0,1-3.309-3.359,10.3,10.3,0,0,1-1.2-5.045,10,10,0,0,1,1.232-5.012,8.5,8.5,0,0,1,3.359-3.342,10.31,10.31,0,0,1,9.518,0,8.521,8.521,0,0,1,3.358,3.325,9.983,9.983,0,0,1,1.232,5.029,9.855,9.855,0,0,1-1.265,5.045,8.778,8.778,0,0,1-3.427,3.359,9.816,9.816,0,0,1-4.792,1.181,9.461,9.461,0,0,1-4.708-1.181m7.813-2.3a5.91,5.91,0,0,0,2.346-2.329,7.462,7.462,0,0,0,.894-3.78,7.576,7.576,0,0,0-.878-3.781,5.757,5.757,0,0,0-2.294-2.312,6.627,6.627,0,0,0-6.159,0,5.571,5.571,0,0,0-2.245,2.312,7.831,7.831,0,0,0-.843,3.781,8.024,8.024,0,0,0,.826,3.814,5.487,5.487,0,0,0,2.211,2.312,6.207,6.207,0,0,0,3.037.76,6.488,6.488,0,0,0,3.105-.776" transform="translate(-40.126 -37.661)" fill="#030405"/>
    <path id="Path_6" data-name="Path 6" d="M556.19,960.161a8.187,8.187,0,0,1,4.152-1.047,8.632,8.632,0,0,1,4.488,1.182,8.371,8.371,0,0,1,3.139,3.324,10.4,10.4,0,0,1,1.147,4.978,10.62,10.62,0,0,1-1.147,5,8.414,8.414,0,0,1-7.627,4.623,8.228,8.228,0,0,1-4.2-1.046,7.109,7.109,0,0,1-2.716-2.666v3.409h-3.072V952.938h3.072v9.922a7.267,7.267,0,0,1,2.767-2.7m8.944,4.793a5.843,5.843,0,0,0-2.278-2.363,6.31,6.31,0,0,0-3.157-.81,6.139,6.139,0,0,0-3.122.827,6.046,6.046,0,0,0-2.3,2.4,8.156,8.156,0,0,0,0,7.292,6.044,6.044,0,0,0,2.3,2.4,6.134,6.134,0,0,0,3.122.828,6.2,6.2,0,0,0,3.157-.828,5.939,5.939,0,0,0,2.278-2.4,7.7,7.7,0,0,0,.844-3.7,7.518,7.518,0,0,0-.844-3.645" transform="translate(-49.719 -35.056)" fill="#030405"/>
    <path id="Path_7" data-name="Path 7" d="M582.678,955.508a2.093,2.093,0,0,1,1.485-3.578,1.925,1.925,0,0,1,1.434.608,2.162,2.162,0,0,1,0,2.97,1.927,1.927,0,0,1-1.434.607,2.021,2.021,0,0,1-1.485-.607m2.97,22.106h-3.071v-18.5h3.071Z" transform="translate(-59.128 -34.757)" fill="#030405"/>
    <path id="Path_8" data-name="Path 8" d="M432.274,1016.561a2.033,2.033,0,1,1,0,4.067h-.049a9.319,9.319,0,0,1-3.324-.578,7.014,7.014,0,0,1-2.5-1.6,6.579,6.579,0,0,1-1.538-2.432,9.171,9.171,0,0,1-.5-3.074v-5.9a3.274,3.274,0,0,0-2.4.893,4.018,4.018,0,0,0-.876,2.894v9.8H411.043a10.472,10.472,0,0,1-3.356-.5,6.693,6.693,0,0,1-2.5-1.488,6.283,6.283,0,0,1-1.571-2.447,9.824,9.824,0,0,1-.547-3.423V1005h6.664v4.068h-1.952v3.7a4.018,4.018,0,0,0,.877,2.894,3.213,3.213,0,0,0,2.38.893h5.325v-5.737a9.823,9.823,0,0,1,.545-3.423,6.414,6.414,0,0,1,1.587-2.464,6.653,6.653,0,0,1,2.5-1.472,10.491,10.491,0,0,1,3.356-.5H429.1v10.037a3.754,3.754,0,0,0,.843,2.645,3.019,3.019,0,0,0,2.332.91" transform="translate(-6.031 -49.897)" fill="#030405"/>
    <path id="Path_9" data-name="Path 9" d="M444.589,1017.385a3.1,3.1,0,0,0,2.315-.894,3.937,3.937,0,0,0,.876-2.843l.017-7.788h6.663v4.068h-1.95v3.721a7.658,7.658,0,0,1-2.1,5.779,8.034,8.034,0,0,1-5.82,2.025Z" transform="translate(-18.346 -50.755)" fill="#030405"/>
    <path id="Path_10" data-name="Path 10" d="M472.577,1022.877a3.04,3.04,0,0,0,2.347-.909,3.458,3.458,0,0,0,.827-2.248,11.042,11.042,0,0,1-4.58.909,11.565,11.565,0,0,1-3.8-.6,8.527,8.527,0,0,1-2.96-1.711,7.556,7.556,0,0,1-1.926-2.77,9.751,9.751,0,0,1-.686-3.769,9.56,9.56,0,0,1,.686-3.712,7.725,7.725,0,0,1,1.926-2.778,8.4,8.4,0,0,1,2.96-1.727,11.582,11.582,0,0,1,3.8-.6,11.7,11.7,0,0,1,3.786.587,8.226,8.226,0,0,1,2.952,1.721,7.787,7.787,0,0,1,1.917,2.768,9.6,9.6,0,0,1,.687,3.738v7.557a8.807,8.807,0,0,1-.522,3.067,6.756,6.756,0,0,1-1.528,2.438,6.916,6.916,0,0,1-2.489,1.6,9.6,9.6,0,0,1-3.4.587Zm.479-6.68a4.006,4.006,0,0,0,1.448-.976,4.416,4.416,0,0,0,.909-1.5,5.576,5.576,0,0,0,.323-1.935,5.675,5.675,0,0,0-.323-1.967,4.242,4.242,0,0,0-.909-1.488,4,4,0,0,0-1.448-.951,5.111,5.111,0,0,0-1.885-.339,4.93,4.93,0,0,0-1.877.348,4.147,4.147,0,0,0-1.455.983,4.616,4.616,0,0,0-.943,1.505,5.207,5.207,0,0,0-.338,1.91,5.325,5.325,0,0,0,.338,1.935,4.412,4.412,0,0,0,.952,1.5,4.279,4.279,0,0,0,1.455.976,4.819,4.819,0,0,0,1.852.348,5.034,5.034,0,0,0,1.9-.348" transform="translate(-23.451 -49.897)" fill="#030405"/>
    <path id="Path_11" data-name="Path 11" d="M504.478,1018.414a8.225,8.225,0,0,1-2.828,1.62,11.583,11.583,0,0,1-3.8.594h-6.265v-4.083h6.283a5.205,5.205,0,0,0,1.884-.331,3.761,3.761,0,0,0,1.438-.959,4.251,4.251,0,0,0,.927-1.488,5.816,5.816,0,0,0,.314-1.967,5.71,5.71,0,0,0-.314-1.934,4.438,4.438,0,0,0-.927-1.505,3.91,3.91,0,0,0-1.438-.976,4.981,4.981,0,0,0-1.884-.347h-3.141v-4.067h3.123a11.871,11.871,0,0,1,3.8.578,8.315,8.315,0,0,1,2.944,1.721,7.379,7.379,0,0,1,1.918,2.76,9.684,9.684,0,0,1,.695,3.771v1.207a3.753,3.753,0,0,0,.842,2.645,3.053,3.053,0,0,0,2.332.894,1.949,1.949,0,0,1,1.438.6,1.989,1.989,0,0,1,.594,1.448,2.029,2.029,0,0,1-2.033,2.032h-.051a9.309,9.309,0,0,1-3.322-.578,7,7,0,0,1-2.5-1.6Z" transform="translate(-32.286 -49.898)" fill="#030405"/>
    <path id="Path_12" data-name="Path 12" d="M523.9,1018.889a6.831,6.831,0,0,1-2.265,1.307,10.062,10.062,0,0,1-3.323.513v-4.068a3.093,3.093,0,0,0,2.315-.894,3.934,3.934,0,0,0,.876-2.844l.017-9.554h6.664v4.068h-1.952v5.718a3.683,3.683,0,0,0,.845,2.629,3.015,3.015,0,0,0,2.33.91,2.034,2.034,0,0,1,1.439,3.472,1.937,1.937,0,0,1-1.422.6h-.084a9.83,9.83,0,0,1-3.307-.579,6.943,6.943,0,0,1-2.133-1.274" transform="translate(-40.215 -50.01)" fill="#030405"/>
    <path id="Path_13" data-name="Path 13" d="M537.257,1011.783a9.413,9.413,0,0,1,.695-3.7,7.727,7.727,0,0,1,1.918-2.777,8.846,8.846,0,0,1,2.976-1.737,12.332,12.332,0,0,1,7.573,0,7.826,7.826,0,0,1,4.878,4.48,10.739,10.739,0,0,1,0,7.507,7.831,7.831,0,0,1-1.919,2.778,8.388,8.388,0,0,1-2.959,1.7,12.343,12.343,0,0,1-7.573,0,8.545,8.545,0,0,1-2.861-1.6l-.015.015a7.19,7.19,0,0,1-2.513,1.605,9.579,9.579,0,0,1-3.373.578v-4.067a3.022,3.022,0,0,0,2.332-.91,3.69,3.69,0,0,0,.843-2.629Zm11.268,4.414a4.09,4.09,0,0,0,1.447-.976,4.339,4.339,0,0,0,.919-1.5,5.979,5.979,0,0,0-.009-3.894,4.319,4.319,0,0,0-.918-1.5,3.994,3.994,0,0,0-1.438-.951,5.093,5.093,0,0,0-1.893-.339,4.949,4.949,0,0,0-1.869.348,3.96,3.96,0,0,0-1.455.992,4.759,4.759,0,0,0-.935,1.5,5.141,5.141,0,0,0-.339,1.9,5.325,5.325,0,0,0,.339,1.935,4.41,4.41,0,0,0,.951,1.5,4.289,4.289,0,0,0,1.455.976,4.821,4.821,0,0,0,1.852.348,4.969,4.969,0,0,0,1.893-.348" transform="translate(-44.894 -49.897)" fill="#030405"/>
    <path id="Path_14" data-name="Path 14" d="M445.809,1034.239a2.109,2.109,0,1,1-2.109-2.109,2.11,2.11,0,0,1,2.109,2.109" transform="translate(-17.456 -58.548)" fill="#030405"/>
    <path id="Path_15" data-name="Path 15" d="M525.864,995.977a2.109,2.109,0,1,1-2.109-2.109,2.109,2.109,0,0,1,2.109,2.109" transform="translate(-41.204 -47.198)" fill="#030405"/>
    <path id="Path_16" data-name="Path 16" d="M421.456,1034.239a2.109,2.109,0,1,1-2.109-2.109,2.11,2.11,0,0,1,2.109,2.109" transform="translate(-10.232 -58.548)" fill="#030405"/>
    <path id="Path_17" data-name="Path 17" d="M421.456,1034.239a2.109,2.109,0,1,1-2.109-2.109,2.11,2.11,0,0,1,2.109,2.109" transform="translate(-10.232 -58.548)" fill="#030405"/>
    <path id="Path_18" data-name="Path 18" d="M414.43,1034.239a2.109,2.109,0,1,1-2.109-2.109,2.11,2.11,0,0,1,2.109,2.109" transform="translate(-8.148 -58.548)" fill="#030405"/>
    <path id="Path_19" data-name="Path 19" d="M433.352,904.047V848.44L465.7,867.206v15.889l-17.96-8.866v29.818Z" transform="translate(-15.013 -4.058)" fill="#0f2367"/>
    <path id="Path_20" data-name="Path 20" d="M522.951,904.047V848.44L490.6,867.206v15.889l17.96-8.866v29.818Z" transform="translate(-31.995 -4.058)" fill="#0f2367"/>
    <path id="Path_21" data-name="Path 21" d="M447.742,849.779l-14.391-8.44v-6.579l14.391,8.44Z" transform="translate(-15.013)" fill="#42bdd8"/>
    <path id="Path_22" data-name="Path 22" d="M516.135,849.779l14.391-8.44v-6.579l-14.391,8.44Z" transform="translate(-39.569)" fill="#42bdd8"/>
  </g>
</svg>
